<svg width="24" height="25" viewBox="0 0 24 25" fill="none" xmlns="http://www.w3.org/2000/svg">
<path d="M23.625 5.625C23.625 8.41992 21.3574 10.6875 18.5625 10.6875C17.0332 10.6875 15.6621 10.0547 14.7129 8.94727L9.9668 11.3203C10.0723 11.6895 10.125 12.0586 10.125 12.375C10.125 12.7441 10.0723 13.1133 9.9668 13.4824L14.7129 15.8027C15.6621 14.748 17.0332 14.0625 18.5625 14.0625C21.3574 14.0625 23.625 16.3301 23.625 19.125C23.625 21.9199 21.3574 24.1875 18.5625 24.1875C15.7676 24.1875 13.5 21.9199 13.5 19.125C13.5 18.8086 13.5 18.4395 13.6055 18.0703L8.85938 15.6973C7.91016 16.8047 6.53906 17.4375 5.0625 17.4375C2.26758 17.4375 0 15.1699 0 12.375C0 9.58008 2.26758 7.3125 5.0625 7.3125C6.53906 7.3125 7.91016 7.99805 8.85938 9.05273L13.6055 6.73242C13.5 6.36328 13.5 5.99414 13.5 5.625C13.5 2.83008 15.7676 0.5625 18.5625 0.5625C21.3574 0.5625 23.625 2.83008 23.625 5.625ZM5.0625 14.9062C5.95898 14.9062 6.75 14.4316 7.22461 13.6406C7.69922 12.9023 7.69922 11.9004 7.22461 11.1094C6.75 10.3711 5.95898 9.84375 5.0625 9.84375C4.11328 9.84375 3.32227 10.3711 2.84766 11.1094C2.37305 11.9004 2.37305 12.9023 2.84766 13.6406C3.32227 14.4316 4.11328 14.9062 5.0625 14.9062ZM21.0938 5.625C21.0938 4.72852 20.5664 3.9375 19.8281 3.46289C19.0371 2.98828 18.0352 2.98828 17.2969 3.46289C16.5059 3.9375 16.0312 4.72852 16.0312 5.625C16.0312 6.57422 16.5059 7.36523 17.2969 7.83984C18.0352 8.31445 19.0371 8.31445 19.8281 7.83984C20.5664 7.36523 21.0938 6.57422 21.0938 5.625ZM18.5625 21.6562C19.459 21.6562 20.25 21.1816 20.7246 20.3906C21.1992 19.6523 21.1992 18.6504 20.7246 17.8594C20.25 17.1211 19.459 16.5938 18.5625 16.5938C17.6133 16.5938 16.8223 17.1211 16.3477 17.8594C15.873 18.6504 15.873 19.6523 16.3477 20.3906C16.8223 21.1816 17.6133 21.6562 18.5625 21.6562Z" fill="#68507C"/>
</svg>
